<svg width="242" height="20" viewBox="0 0 242 20" fill="none" xmlns="http://www.w3.org/2000/svg">
<g clip-path="url(#clip0_1937_20318)">
<path d="M226.642 15.3207V11.3207V5.19089L221.993 0.0382164L221.985 0.0229492V0.0305828V11.3207V19.9771H239.306L241.978 15.3512V15.3207H226.642Z" fill="white"/>
<path d="M220.061 13.6642C220.061 15.4658 219.428 16.9772 218.16 18.1833C216.893 19.3818 215.351 19.9848 213.542 19.9848H201.817C200.008 19.9848 198.466 19.3818 197.199 18.1833C195.931 16.9772 195.298 15.4734 195.298 13.6642V6.33599C195.298 4.53446 195.931 3.02301 197.199 1.81691C198.466 0.618434 200.008 0.0153809 201.817 0.0153809H213.542C215.351 0.0153809 216.893 0.618434 218.16 1.81691C219.428 3.02301 220.061 4.52683 220.061 6.33599V13.6642ZM215.405 6.34363C215.405 5.23675 214.786 4.6795 213.542 4.6795H201.817C200.573 4.6795 199.954 5.23675 199.954 6.34363V13.6566C199.954 14.7635 200.573 15.3207 201.817 15.3207H213.542C214.786 15.3207 215.405 14.7635 215.405 13.6566V6.34363Z" fill="white"/>
<path d="M193.084 15.3207H180.328C179.313 15.3207 178.466 14.4733 178.466 13.4581V6.54203C178.466 5.52677 179.313 4.67944 180.328 4.67944H193.084L195.771 0.0229492H180.321C176.733 0.0229492 173.802 2.95425 173.802 6.54203V13.4504C173.802 17.0382 176.733 19.9695 180.321 19.9695H195.771L193.084 15.3207Z" fill="white"/>
<path d="M172.123 13.6642C172.123 15.4658 171.489 16.9772 170.222 18.1833C168.955 19.3818 167.413 19.9848 165.604 19.9848H153.878C152.069 19.9848 150.527 19.3818 149.26 18.1833C147.993 16.9772 147.359 15.4734 147.359 13.6642V6.33599C147.359 4.53446 147.993 3.02301 149.26 1.81691C150.527 0.618434 152.069 0.0153809 153.878 0.0153809H165.604C167.413 0.0153809 168.955 0.618434 170.222 1.81691C171.489 3.02301 172.123 4.52683 172.123 6.33599V13.6642ZM167.466 6.34363C167.466 5.23675 166.848 4.6795 165.604 4.6795H153.878C152.634 4.6795 152.016 5.23675 152.016 6.34363V13.6566C152.016 14.7635 152.634 15.3207 153.878 15.3207H165.604C166.848 15.3207 167.466 14.7635 167.466 13.6566V6.34363Z" fill="white"/>
<path d="M125.504 0.0229492L128.191 4.67944H134.504V19.9695H139.16V4.67944H145.473L148.16 0.0229492H125.504Z" fill="white"/>
<path d="M126.298 13.6642C126.298 15.4658 125.664 16.9772 124.397 18.1833C123.13 19.3818 121.588 19.9848 119.778 19.9848H108.053C106.244 19.9848 104.702 19.3818 103.435 18.1833C102.168 16.9772 101.534 15.4734 101.534 13.6642V6.33599C101.534 4.53446 102.168 3.02301 103.435 1.81691C104.702 0.618434 106.244 0.0153809 108.053 0.0153809H119.778C121.588 0.0153809 123.13 0.618434 124.397 1.81691C125.664 3.02301 126.298 4.52683 126.298 6.33599V13.6642ZM121.641 6.34363C121.641 5.23675 121.023 4.6795 119.778 4.6795H108.053C106.809 4.6795 106.191 5.23675 106.191 6.34363V13.6566C106.191 14.7635 106.809 15.3207 108.053 15.3207H119.778C121.023 15.3207 121.641 14.7635 121.641 13.6566V6.34363Z" fill="white"/>
<path d="M93.6111 0.0229492H75.3516L78.0386 4.67944H93.6111C94.7485 4.67944 95.6874 5.626 95.6874 6.75577C95.6874 7.89318 94.7409 8.83211 93.6111 8.83211H80.3974L83.0844 13.4886L86.8248 19.9695H92.2065L88.4661 13.4886H93.6111C97.3134 13.4886 100.344 10.4581 100.344 6.75577C100.344 3.05348 97.3134 0.0229492 93.6111 0.0229492Z" fill="white"/>
<path d="M69.6258 0.0229492H58.3738H51.3738V4.67944H54.0609H58.3738H69.6258C70.7632 4.67944 71.7021 5.626 71.7021 6.75577C71.7021 7.89318 70.7555 8.83211 69.6258 8.83211H51.3662V19.9695H56.0227V13.4886H69.6258C73.328 13.4886 76.3586 10.4581 76.3586 6.75577C76.3662 3.05348 73.3357 0.0229492 69.6258 0.0229492Z" fill="white"/>
<path d="M36.1606 19.9771H41.901L34.0384 10.084L41.9087 0.0229492H36.1606L30.2216 7.45806L24.2903 0.0229492H18.5117L26.4125 10.084L18.5194 19.9771H24.2903L30.2216 12.6031L36.1606 19.9771Z" fill="#518DF9"/>
<path d="M19.4967 18.3359V0.0229492H14.4967L13.2524 1.14509L9.35932 4.6489L0.0234375 13.0382V16.8397H3.03107H14.7334V19.9695H19.5044L19.4967 18.3359ZM7.9471 12.1909L14.7257 6.08402V12.1909H7.9471Z" fill="#518DF9"/>
</g>
<defs>
<clipPath id="clip0_1937_20318">
<rect width="241.985" height="20" fill="white" transform="translate(0.0078125)"/>
</clipPath>
</defs>
</svg>
